PathFileType	4	(X/Y/Z)	4_1_22_p0_0-387_filt_butterworth.trc
DataRate	CameraRate	NumFrames	NumMarkers	Units	OrigDataRate	OrigDataStartFrame	OrigNumFrames
60.0	60.0	7	27	m	60.0	96	387
Frame#	Time	RHip			RKnee			RAnkle			RBigToe			RSmallToe			RHeel			LHip			LKnee			LAnkle			LBigToe			LSmallToe			LHeel			Neck			Head			Nose			RShoulder			RElbow			RWrist			RThumb			RIndex			RPinky			LShoulder			LElbow			LWrist			LThumb			LIndex			LPinky			
		X1	Y1	Z1	X2	Y2	Z2	X3	Y3	Z3	X4	Y4	Z4	X5	Y5	Z5	X6	Y6	Z6	X7	Y7	Z7	X8	Y8	Z8	X9	Y9	Z9	X10	Y10	Z10	X11	Y11	Z11	X12	Y12	Z12	X13	Y13	Z13	X14	Y14	Z14	X15	Y15	Z15	X16	Y16	Z16	X17	Y17	Z17	X18	Y18	Z18	X19	Y19	Z19	X20	Y20	Z20	X21	Y21	Z21	X22	Y22	Z22	X23	Y23	Z23	X24	Y24	Z24	X25	Y25	Z25	X26	Y26	Z26	X27	Y27	Z27	
96	1.6	0.3747443150289091	0.9876689931762823	0.3766690125635365	0.38113096724635354	0.5446090563792253	0.421465957927082	0.3795818677465572	0.1114651152388765	0.5279741415108176	0.3684306468428718	0.10433182196172366	0.26995427439547065	0.4258016071120553	0.07986183265311692	0.33691642509543757	0.36379796648700125	0.07893094114790807	0.5441453053404041	0.1622013814314088	0.9710244893709682	0.3607724327476581	0.1920807418662019	0.5419451377240216	0.4286161169234123	0.20739217800395215	0.11911466042350062	0.4880273924993696	0.19713211145676335	0.07587133411200134	0.2734843204312849	0.1414706982519684	0.10319788882148914	0.29912298303367646	0.21982867220716484	0.04616627368792237	0.5557089715410849	0.23630304385442225	1.5439217475520781	0.32644090073345045	0.23908149061267928	1.7984313228111277	0.2547478513442783	0.250750832811	1.6663095629273832	0.2085998961019669	0.4260691567463495	1.4394141714041764	0.33990013308679945	0.472690343437811	1.1594077052444198	0.3621931361453955	0.49040661121003193	0.9093518074392225	0.360577329962131	0.44835794233455195	0.8305367027675422	0.27251531089725184	0.4697219644869173	0.7788791557451626	0.30696501329935644	0.49004838643161397	0.7789646268307567	0.34997182490279216	0.06965791947515738	1.430481926630394	0.36722126914842346	0.03449619423019524	1.1292809303293418	0.35600818767470255	0.04729447586085317	0.883086691340223	0.3530029400182597	0.12219131936110145	0.8037852515991601	0.3117612093069869	0.10364438540722637	0.7652094346837095	0.2841646089483258	0.043877633001448334	0.7598607767157565	0.3556248424221792	
97	1.6166666666666667	0.37470102150033446	0.9872790406057752	0.3765583645006666	0.38113065734275176	0.5450905957055889	0.4215470259299611	0.3795758341280311	0.11145629717278813	0.5279736438293353	0.36851564937059245	0.10411948094276899	0.27019207697121866	0.425095109135745	0.07748610183143932	0.34041403162087197	0.36393853266955484	0.07875363152885365	0.5442866721139623	0.16182804782346574	0.9711333221877954	0.36062899392369446	0.1919790688942748	0.5421558960201007	0.4282841084706729	0.20739656303468007	0.11910882973528968	0.4880360782085161	0.19696370353649206	0.07618384762086218	0.2734924889728868	0.14161587581883212	0.10314042894141402	0.29909095383582884	0.2198630577033367	0.045927397320369365	0.5556047552512158	0.2362521518806986	1.5446048104158558	0.32650436586365494	0.23912927588478916	1.798532384120292	0.2545050496967286	0.2514903130919372	1.6678571932052544	0.20851180023564542	0.4267301645841436	1.4389877570284764	0.3401827150623368	0.4726653082029596	1.1594695798911425	0.36207528987308363	0.4904889747349531	0.9093917472759803	0.3605578032970433	0.44831140898027827	0.8306638777524123	0.27231458612714576	0.47054226445099817	0.77927463721805	0.30770630015927597	0.49040196784274087	0.7793629019970635	0.34880735823911374	0.0698220244206484	1.4303854703679448	0.3667664138659746	0.034486648157133946	1.129256160827897	0.355952979189331	0.047270108377650256	0.8831459044738293	0.3530202537674377	0.12218092530705656	0.8038003998911935	0.31175724219838885	0.10356763767083048	0.7658160274721176	0.2841220417077178	0.04355729528246789	0.7602150140567338	0.3555054984287415	
98	1.6333333333333333	0.37460188640918807	0.9869821277839734	0.37649241878664236	0.38110025160243965	0.5455102591981877	0.4216540833444665	0.3795714447441464	0.11144976193495647	0.5279801187903188	0.36859061418387135	0.10386261928928014	0.27068086707239014	0.42477324264434335	0.07526563776932366	0.3440116241853347	0.3641162427839883	0.07840277655661479	0.5446429320405843	0.16147734569465885	0.9711845097208441	0.3604681696242768	0.19191277951172764	0.5422602005476238	0.42806763258715186	0.20740069273125208	0.11910277955228675	0.4880521030141526	0.1967077589132617	0.07713623688771662	0.2733726199498661	0.14169111603601228	0.10309847330210542	0.29908578544695236	0.21989067025485223	0.04571688425843839	0.555528677113083	0.2362158025510336	1.5451469738993924	0.3265516588025667	0.23918415441020502	1.7988730614883932	0.25420107972518197	0.2518022987604074	1.6689912649874588	0.20852836520428256	0.42756742266920206	1.4388614353015536	0.3405047567136003	0.4726530257955364	1.1593858598082405	0.3619513699987317	0.4904067529179117	0.9093720076365384	0.36054134282159533	0.44827771143974293	0.8306208402263521	0.2718483754537443	0.47136253986709087	0.7797771082111826	0.30890174290855854	0.49070897499837685	0.77983038477288	0.34849303369262485	0.06994207535741351	1.430400129046048	0.3663948743766928	0.034484309237398314	1.1292809207927765	0.35593511162847713	0.04724116911734348	0.8832378718504198	0.35303954957011535	0.12218737669499348	0.8037691614066321	0.311784219039095	0.10361028983831849	0.7667460716364867	0.28406407976160875	0.04298660879846104	0.7607515324253872	0.35532739228456517	
99	1.65	0.3744743820760335	0.9867296701444143	0.3764741288344563	0.3810690672736666	0.5457899413370982	0.4217542708125458	0.3795699587148887	0.11144561387256967	0.5279926751459074	0.36862407700731215	0.10362401279325191	0.27147887142026483	0.42503059240933416	0.07377575083941348	0.34688908401353397	0.3642440788929223	0.07804810248313412	0.5450168205656621	0.161158557202734	0.9711520871956347	0.36029102071914487	0.19188624639727292	0.5422866305836902	0.4279866164867926	0.20740463442507476	0.11909775153621412	0.488071322858245	0.19643799370443904	0.07842874283809428	0.27320625675901966	0.1417047800777957	0.10306717889959086	0.29911296411111366	0.21991156161316117	0.0455481778348359	0.5554820426858479	0.23619465468564066	1.5454638458636576	0.3265800072675908	0.239183942823083	1.799441464368365	0.2540753001245967	0.25175577531999493	1.6697455014133058	0.2086132872501386	0.4284162042292916	1.4389364641770566	0.34084427720135274	0.47268587810832435	1.1590597519663353	0.3619065123661285	0.4902793604348762	0.9092433830403992	0.3606684116323274	0.44829963489557645	0.830625410952743	0.2714560658890476	0.47190395840309723	0.7804312324905963	0.3104356982180303	0.4909353930525083	0.7806084105410511	0.348640299839067	0.06982251395511271	1.4305062506855908	0.36664285505907596	0.03448739742483737	1.1293538304491229	0.35595538626513873	0.04721723082881217	0.8832880602519203	0.3530671213890111	0.12220142451377947	0.8037478843807156	0.3118205272815071	0.10372477601636405	0.7678008820990652	0.2839840847480181	0.04224724320017564	0.7614420484007889	0.3551188421677562	
100	1.6666666666666667	0.37439323325143775	0.9864447496157285	0.3764749060788307	0.38105239685426634	0.5459359175080274	0.42182910083132663	0.37957158567804966	0.11144418174832843	0.5280086433261962	0.3685045741820594	0.10331098083840311	0.2726368089881385	0.4259185419974503	0.07333153624640919	0.3486086089479262	0.3643006979479205	0.07782903080658646	0.5452316851910702	0.1608790201437603	0.9710244554340539	0.3601029283730349	0.19191430466188283	0.5422612584658674	0.428101331545542	0.2074085337286543	0.11909447075609655	0.4880896947683147	0.19620540348276694	0.07973942496068104	0.27306466335689733	0.14168724085167606	0.10303586277262863	0.2991766853725061	0.21992587484461784	0.04543752926492164	0.5554670001185833	0.2361857949520014	1.5455256194324027	0.3265934386928848	0.23914265111206456	1.8001572191234618	0.2541167401533733	0.2515266624141817	1.6702730945201039	0.20870217383452705	0.4291749206680757	1.4390568339481733	0.34116783504834497	0.4727911153531759	1.1584823002956508	0.36199066132593	0.49016746456314575	0.9090371867390737	0.36100189006083944	0.4484461911774758	0.8307496752655715	0.27189966570870644	0.4719992070084225	0.7809190475767708	0.31165008524932436	0.49100719918445296	0.7815558603613648	0.34878396020427344	0.06931793960214297	1.4306594453931105	0.3679903847301551	0.03449344106308602	1.1294638198684026	0.35599920073220626	0.04720033437266631	0.8833039181533469	0.35309805808629	0.12220388482329324	0.803774989765889	0.31180989386422964	0.10383048182640206	0.7687410622457659	0.2839100254883816	0.04144588989311432	0.7622264730161766	0.35491596743328874	
101	1.6833333333333331	0.37440229044454937	0.9861178304172432	0.3764704526313095	0.38104989058838984	0.5460017375738473	0.42187537166286854	0.37957553725600957	0.11144603736320109	0.5280238597276027	0.36807849708695806	0.10280009537462628	0.2740875218096129	0.4272988481528609	0.07377417667014544	0.34904522923286024	0.3643133095431337	0.07776570921627413	0.5452624299253116	0.16064653165968332	0.9707977758400862	0.3599102427747416	0.19201635621110352	0.5421657489360536	0.4284868117373514	0.2074125731370979	0.1190924962127648	0.4881066570159124	0.19608186646291864	0.08074857415838022	0.2729920599754119	0.1416660311484356	0.10300221537167094	0.2992656431581692	0.2199335019250274	0.045397056983581596	0.555486938062898	0.23618520254617223	1.545408708207956	0.3266023834653983	0.2390927098861712	1.8009190263094825	0.25423280170192253	0.251285905086328	1.670740948560579	0.20875990201598063	0.4297640606377211	1.439131939767389	0.3414437819748891	0.47299293405262266	1.157701708432695	0.36221351109760996	0.4901067485576913	0.9089220730571099	0.3613107959737308	0.44871292488659453	0.8309241357828829	0.2737821316688902	0.471679921054008	0.7808816832621577	0.3118597669647667	0.49089326983653925	0.7824142992295574	0.34871105961338084	0.06845500178677036	1.430848244507411	0.37052569853859885	0.03450051417049189	1.1295934837395145	0.35604603900515347	0.0471889220417317	0.8833162830396922	0.35311966607102446	0.12216689536266051	0.803872573613405	0.311663814242866	0.10388247652261029	0.7692505941967818	0.2838995042696657	0.04069179679442041	0.7630229209842034	0.3547571192652179	
102	1.7	0.37447067189414507	0.9858268383007259	0.3764538479467586	0.38106017718803004	0.5460324044973093	0.42190088382878566	0.37958059353217627	0.11145124513197266	0.5280353393993588	0.3673434641999046	0.10208840472733206	0.2756457925128487	0.428868169621332	0.07447138329459209	0.34841310357816785	0.36431059438771324	0.07779077278399414	0.5452053595980889	0.1604705688365469	0.9704915769994001	0.3597247957946393	0.19219129077387928	0.5419463172756791	0.4291388669372621	0.20741683907836075	0.11909080644439117	0.48812524885579767	0.19618318352267838	0.08116927849784822	0.27300843876499015	0.14165612310720932	0.10297120912079695	0.2993499704343797	0.21993469211659952	0.04542496035134913	0.5555420924258148	0.23619212678979024	1.5452786382701371	0.32661548578921296	0.23905176399415412	1.8016232801862992	0.25436022137701875	0.2511556514793728	1.671262191669372	0.2088137177746455	0.4301140052572454	1.4391427585294008	0.34163702183274525	0.47327614747311914	1.1568117639562132	0.36254825647879096	0.49016681142707186	0.9091514567301433	0.36110687615124737	0.44902207890518075	0.8310789200308909	0.2769357071284474	0.47115021979674465	0.7803862775586742	0.3111285407364756	0.490665382819752	0.7831602625566753	0.348474543866837	0.0674424823613884	1.4310652522490699	0.3737237589967807	0.03450756179910838	1.129721829218482	0.3560819443459265	0.047181490872067106	0.8833394642789025	0.35312454173356805	0.12208270588622785	0.8040284904601799	0.31136498899840825	0.10389422235914983	0.7690688954107315	0.2840123359466113	0.04009217954502449	0.7637101051057487	0.3546724106419023	
